<svg width="216" height="216" viewBox="0 0 216 216" fill="none" xmlns="http://www.w3.org/2000/svg">
<path d="M176.157 0H39.8432C17.8384 0 0 17.9086 0 40V176C0 198.091 17.8384 216 39.8432 216H176.157C198.162 216 216 198.091 216 176V40C216 17.9086 198.162 0 176.157 0Z" fill="#009373"/>
<path d="M105.831 174.035C98.8161 170 96.4077 161.045 100.465 154.052L130.685 101.774C134.733 94.7808 143.717 92.3801 150.732 96.4244C157.747 100.459 160.156 109.414 156.098 116.407L125.878 168.685C121.831 175.678 112.847 178.079 105.831 174.035Z" fill="white"/>
<path d="M148.493 174.035C141.478 170.001 139.07 161.045 143.127 154.052L160.615 123.959C164.663 116.966 173.647 114.565 180.662 118.609C187.678 122.644 190.086 131.599 186.029 138.592L168.54 168.686C164.493 175.679 155.509 178.079 148.493 174.035Z" fill="white"/>
<path d="M69.0956 174.035C76.111 170 78.5194 161.045 74.4621 154.052L58.1927 125.751C54.1454 118.758 45.1613 116.358 38.1459 120.402C31.1305 124.437 28.7221 133.392 32.7794 140.385L49.0487 168.686C53.0961 175.679 62.0802 178.079 69.0956 174.035Z" fill="white"/>
<path d="M138.75 41.9649C131.734 37.9205 122.76 40.3213 118.703 47.3142L87.0438 101.973L55.3845 47.3142C51.3372 40.3213 42.3531 37.9205 35.3377 41.9649C28.3223 45.9993 25.9139 54.9547 29.9712 61.9477L74.1722 138.253C76.9204 142.995 81.9271 145.624 87.0538 145.565C92.1804 145.624 97.1871 142.995 99.9353 138.253L144.136 61.9477C148.184 54.9547 145.785 46.0093 138.77 41.9649H138.75Z" fill="white"/>
</svg>
